M48
;GenerationSoftware,Autodesk,EAGLE,9.3.2*%
;CreationDate,2019-05-04T23:22:14Z*%
FMAT,2
ICI,OFF
METRIC,TZ,000.000
T3C0.610
T2C0.813
T1C2.200
%
G90
M71
T1
X7493Y72390
X29083Y72390
X7493Y24130
X29083Y24130
X44958Y72390
X44958Y24130
T2
X14732Y35814
X14732Y33274
X21844Y72644
X22352Y25400
X24892Y25400
X29972Y58674
X19812Y25400
X14732Y29464
X19812Y29464
X29972Y33274
X29972Y35814
X29972Y38354
X29972Y40894
X29972Y43434
X29972Y45974
X29972Y48514
X29972Y51054
X29972Y53594
X29972Y56134
X24384Y72644
X29972Y61214
X29972Y63754
X29972Y66294
X14732Y66294
X14732Y63754
X14732Y61214
X14732Y58674
X14732Y56134
X14732Y53594
X14732Y51054
X14732Y48514
X14732Y45974
X14732Y43434
X14732Y40894
X14732Y38354
T3
X5806Y50163
X5813Y47810
X11578Y40702
X8957Y39955
X11027Y42639
X7828Y60008
X9847Y41520
X5880Y28681
X5527Y31750
M30