G04 EAGLE Gerber RS-274X export*
G75*
%MOMM*%
%FSLAX34Y34*%
%LPD*%
%INSilkscreen Bottom*%
%IPPOS*%
%AMOC8*
5,1,8,0,0,1.08239X$1,22.5*%
G01*
%ADD10C,0.228600*%
%ADD11C,0.177800*%
%ADD12C,0.152400*%


D10*
X465343Y297228D02*
X468775Y293796D01*
X468775Y286932D01*
X465343Y283500D01*
X451615Y283500D01*
X448183Y286932D01*
X448183Y293796D01*
X451615Y297228D01*
X468775Y314845D02*
X465343Y318277D01*
X468775Y314845D02*
X468775Y307981D01*
X465343Y304549D01*
X451615Y304549D01*
X448183Y307981D01*
X448183Y314845D01*
X451615Y318277D01*
X448183Y346648D02*
X468775Y346648D01*
X468775Y356944D01*
X465343Y360375D01*
X461911Y360375D01*
X458479Y356944D01*
X455047Y360375D01*
X451615Y360375D01*
X448183Y356944D01*
X448183Y346648D01*
X458479Y346648D02*
X458479Y356944D01*
X465343Y367697D02*
X468775Y367697D01*
X465343Y367697D02*
X458479Y374561D01*
X465343Y381425D01*
X468775Y381425D01*
X458479Y374561D02*
X448183Y374561D01*
X458479Y388746D02*
X458479Y402474D01*
X468775Y420091D02*
X465343Y423523D01*
X468775Y420091D02*
X468775Y413227D01*
X465343Y409795D01*
X461911Y409795D01*
X458479Y413227D01*
X458479Y420091D01*
X455047Y423523D01*
X451615Y423523D01*
X448183Y420091D01*
X448183Y413227D01*
X451615Y409795D01*
X448183Y430845D02*
X461911Y430845D01*
X468775Y437708D01*
X461911Y444572D01*
X448183Y444572D01*
X458479Y444572D02*
X458479Y430845D01*
X448183Y483239D02*
X468775Y483239D01*
X458479Y472943D01*
X458479Y486671D01*
X451615Y493992D02*
X448183Y493992D01*
X451615Y493992D02*
X451615Y497424D01*
X448183Y497424D01*
X448183Y493992D01*
X451615Y504517D02*
X465343Y504517D01*
X468775Y507949D01*
X468775Y514812D01*
X465343Y518244D01*
X451615Y518244D01*
X448183Y514812D01*
X448183Y507949D01*
X451615Y504517D01*
X465343Y518244D01*
X468775Y546615D02*
X448183Y546615D01*
X448183Y560343D01*
X461911Y567664D02*
X461911Y571096D01*
X448183Y571096D01*
X448183Y567664D02*
X448183Y574528D01*
X468775Y571096D02*
X472207Y571096D01*
X461911Y585129D02*
X461911Y595425D01*
X461911Y585129D02*
X458479Y581697D01*
X451615Y581697D01*
X448183Y585129D01*
X448183Y595425D01*
X448183Y606178D02*
X448183Y613042D01*
X448183Y606178D02*
X451615Y602746D01*
X458479Y602746D01*
X461911Y606178D01*
X461911Y613042D01*
X458479Y616474D01*
X455047Y616474D01*
X455047Y602746D01*
X448183Y623795D02*
X461911Y623795D01*
X461911Y634091D01*
X458479Y637523D01*
X448183Y637523D01*
X448183Y644845D02*
X448183Y655140D01*
X451615Y658572D01*
X455047Y655140D01*
X455047Y648276D01*
X458479Y644845D01*
X461911Y648276D01*
X461911Y658572D01*
X448183Y669326D02*
X448183Y676190D01*
X448183Y669326D02*
X451615Y665894D01*
X458479Y665894D01*
X461911Y669326D01*
X461911Y676190D01*
X458479Y679621D01*
X455047Y679621D01*
X455047Y665894D01*
D11*
X281064Y313734D02*
X266065Y313734D01*
X281064Y308734D02*
X281064Y318733D01*
X281064Y324170D02*
X266065Y324170D01*
X273564Y324170D02*
X276064Y326670D01*
X276064Y331669D01*
X273564Y334169D01*
X266065Y334169D01*
X276064Y339606D02*
X276064Y342106D01*
X266065Y342106D01*
X266065Y339606D02*
X266065Y344606D01*
X281064Y342106D02*
X283564Y342106D01*
X266065Y349897D02*
X266065Y357396D01*
X268565Y359896D01*
X271065Y357396D01*
X271065Y352397D01*
X273564Y349897D01*
X276064Y352397D01*
X276064Y359896D01*
X281064Y380769D02*
X271065Y380769D01*
X266065Y385769D01*
X271065Y390768D01*
X281064Y390768D01*
X266065Y398705D02*
X266065Y403704D01*
X266065Y398705D02*
X268565Y396205D01*
X273564Y396205D01*
X276064Y398705D01*
X276064Y403704D01*
X273564Y406204D01*
X271065Y406204D01*
X271065Y396205D01*
X266065Y411641D02*
X276064Y411641D01*
X271065Y411641D02*
X276064Y416641D01*
X276064Y419140D01*
X266065Y424504D02*
X266065Y432004D01*
X268565Y434504D01*
X271065Y432004D01*
X271065Y427004D01*
X273564Y424504D01*
X276064Y427004D01*
X276064Y434504D01*
X276064Y439940D02*
X276064Y442440D01*
X266065Y442440D01*
X266065Y439940D02*
X266065Y444940D01*
X281064Y442440D02*
X283564Y442440D01*
X266065Y452731D02*
X266065Y457731D01*
X268565Y460230D01*
X273564Y460230D01*
X276064Y457731D01*
X276064Y452731D01*
X273564Y450231D01*
X268565Y450231D01*
X266065Y452731D01*
X266065Y465667D02*
X276064Y465667D01*
X276064Y473167D01*
X273564Y475666D01*
X266065Y475666D01*
X266065Y496539D02*
X281064Y496539D01*
X281064Y504039D01*
X278564Y506539D01*
X273564Y506539D01*
X271065Y504039D01*
X271065Y496539D01*
X266065Y511975D02*
X276064Y511975D01*
X271065Y511975D02*
X276064Y516975D01*
X276064Y519475D01*
X266065Y527339D02*
X266065Y532338D01*
X266065Y527339D02*
X268565Y524839D01*
X273564Y524839D01*
X276064Y527339D01*
X276064Y532338D01*
X273564Y534838D01*
X271065Y534838D01*
X271065Y524839D01*
X276064Y540275D02*
X261065Y540275D01*
X276064Y540275D02*
X276064Y547774D01*
X273564Y550274D01*
X268565Y550274D01*
X266065Y547774D01*
X266065Y540275D01*
X276064Y558211D02*
X276064Y563210D01*
X273564Y565710D01*
X266065Y565710D01*
X266065Y558211D01*
X268565Y555711D01*
X271065Y558211D01*
X271065Y565710D01*
X276064Y571147D02*
X266065Y571147D01*
X271065Y571147D02*
X276064Y576147D01*
X276064Y578646D01*
X266065Y586510D02*
X266065Y591510D01*
X266065Y586510D02*
X268565Y584010D01*
X273564Y584010D01*
X276064Y586510D01*
X276064Y591510D01*
X273564Y594010D01*
X271065Y594010D01*
X271065Y584010D01*
X266065Y609446D02*
X281064Y609446D01*
X266065Y609446D02*
X266065Y601946D01*
X268565Y599446D01*
X273564Y599446D01*
X276064Y601946D01*
X276064Y609446D01*
X281064Y630319D02*
X266065Y630319D01*
X266065Y637818D01*
X268565Y640318D01*
X273564Y640318D01*
X276064Y637818D01*
X276064Y630319D01*
X276064Y645755D02*
X268565Y645755D01*
X266065Y648254D01*
X266065Y655754D01*
X263565Y655754D02*
X276064Y655754D01*
X263565Y655754D02*
X261065Y653254D01*
X261065Y650754D01*
X276064Y661191D02*
X276064Y663690D01*
X273564Y663690D01*
X273564Y661191D01*
X276064Y661191D01*
X268565Y661191D02*
X268565Y663690D01*
X266065Y663690D01*
X266065Y661191D01*
X268565Y661191D01*
D12*
X255789Y280506D02*
X243078Y280506D01*
X255789Y280506D02*
X255789Y286862D01*
X253670Y288980D01*
X249433Y288980D01*
X247315Y286862D01*
X247315Y280506D01*
X247315Y284743D02*
X243078Y288980D01*
X243078Y295722D02*
X243078Y299959D01*
X245196Y302078D01*
X249433Y302078D01*
X251552Y299959D01*
X251552Y295722D01*
X249433Y293604D01*
X245196Y293604D01*
X243078Y295722D01*
X243078Y306701D02*
X255789Y306701D01*
X243078Y306701D02*
X243078Y313056D01*
X245196Y315175D01*
X249433Y315175D01*
X251552Y313056D01*
X251552Y306701D01*
X243078Y321917D02*
X243078Y326154D01*
X243078Y321917D02*
X245196Y319798D01*
X249433Y319798D01*
X251552Y321917D01*
X251552Y326154D01*
X249433Y328272D01*
X247315Y328272D01*
X247315Y319798D01*
X243078Y332895D02*
X251552Y332895D01*
X247315Y332895D02*
X251552Y337132D01*
X251552Y339251D01*
X253670Y345928D02*
X245196Y345928D01*
X243078Y348047D01*
X251552Y348047D02*
X251552Y343810D01*
X251552Y365639D02*
X243078Y365639D01*
X251552Y365639D02*
X255789Y369875D01*
X251552Y374112D01*
X243078Y374112D01*
X249433Y374112D02*
X249433Y365639D01*
X255789Y378736D02*
X255789Y380854D01*
X243078Y380854D01*
X243078Y378736D02*
X243078Y382973D01*
X255789Y387467D02*
X255789Y389586D01*
X243078Y389586D01*
X243078Y391704D02*
X243078Y387467D01*
X243078Y398317D02*
X243078Y402554D01*
X243078Y398317D02*
X245196Y396199D01*
X249433Y396199D01*
X251552Y398317D01*
X251552Y402554D01*
X249433Y404673D01*
X247315Y404673D01*
X247315Y396199D01*
X243078Y409296D02*
X251552Y409296D01*
X251552Y415651D01*
X249433Y417770D01*
X243078Y417770D01*
X243078Y439727D02*
X255789Y439727D01*
X255789Y435491D02*
X255789Y443964D01*
X251552Y448588D02*
X245196Y448588D01*
X243078Y450706D01*
X243078Y457062D01*
X251552Y457062D01*
X251552Y461685D02*
X243078Y461685D01*
X247315Y461685D02*
X251552Y465922D01*
X251552Y468040D01*
X251552Y472599D02*
X243078Y472599D01*
X251552Y472599D02*
X251552Y478955D01*
X249433Y481073D01*
X243078Y481073D01*
X243078Y487815D02*
X243078Y492052D01*
X243078Y487815D02*
X245196Y485697D01*
X249433Y485697D01*
X251552Y487815D01*
X251552Y492052D01*
X249433Y494171D01*
X247315Y494171D01*
X247315Y485697D01*
X243078Y498794D02*
X251552Y498794D01*
X247315Y498794D02*
X251552Y503031D01*
X251552Y505149D01*
X253670Y524924D02*
X243078Y524924D01*
X253670Y524924D02*
X255789Y527042D01*
X249433Y527042D02*
X249433Y522806D01*
X243078Y533655D02*
X243078Y537892D01*
X245196Y540011D01*
X249433Y540011D01*
X251552Y537892D01*
X251552Y533655D01*
X249433Y531537D01*
X245196Y531537D01*
X243078Y533655D01*
X243078Y544634D02*
X251552Y544634D01*
X247315Y544634D02*
X251552Y548871D01*
X251552Y550990D01*
X255789Y577120D02*
X243078Y577120D01*
X243078Y570764D01*
X245196Y568646D01*
X249433Y568646D01*
X251552Y570764D01*
X251552Y577120D01*
X251552Y581743D02*
X251552Y583862D01*
X243078Y583862D01*
X243078Y585980D02*
X243078Y581743D01*
X255789Y583862D02*
X257907Y583862D01*
X243078Y590475D02*
X243078Y596830D01*
X245196Y598949D01*
X247315Y596830D01*
X247315Y592593D01*
X249433Y590475D01*
X251552Y592593D01*
X251552Y598949D01*
X253670Y605690D02*
X245196Y605690D01*
X243078Y607809D01*
X251552Y607809D02*
X251552Y603572D01*
X251552Y612303D02*
X243078Y612303D01*
X247315Y612303D02*
X251552Y616540D01*
X251552Y618659D01*
X251552Y623218D02*
X251552Y625336D01*
X243078Y625336D01*
X243078Y623218D02*
X243078Y627455D01*
X255789Y625336D02*
X257907Y625336D01*
X255789Y631949D02*
X243078Y631949D01*
X243078Y638305D01*
X245196Y640423D01*
X249433Y640423D01*
X251552Y638305D01*
X251552Y631949D01*
X251552Y645047D02*
X245196Y645047D01*
X243078Y647165D01*
X243078Y653520D01*
X251552Y653520D01*
X253670Y660262D02*
X245196Y660262D01*
X243078Y662381D01*
X251552Y662381D02*
X251552Y658144D01*
X251552Y666875D02*
X251552Y668994D01*
X243078Y668994D01*
X243078Y671112D02*
X243078Y666875D01*
X255789Y668994D02*
X257907Y668994D01*
X243078Y677725D02*
X243078Y681962D01*
X245196Y684081D01*
X249433Y684081D01*
X251552Y681962D01*
X251552Y677725D01*
X249433Y675607D01*
X245196Y675607D01*
X243078Y677725D01*
X243078Y688704D02*
X251552Y688704D01*
X251552Y695059D01*
X249433Y697178D01*
X243078Y697178D01*
X233772Y279712D02*
X227416Y279712D01*
X225298Y281830D01*
X225298Y288186D01*
X233772Y288186D01*
X233772Y292809D02*
X225298Y292809D01*
X233772Y292809D02*
X233772Y299164D01*
X231653Y301283D01*
X225298Y301283D01*
X225298Y314380D02*
X238009Y314380D01*
X225298Y314380D02*
X225298Y308025D01*
X227416Y305906D01*
X231653Y305906D01*
X233772Y308025D01*
X233772Y314380D01*
X225298Y321122D02*
X225298Y325359D01*
X225298Y321122D02*
X227416Y319004D01*
X231653Y319004D01*
X233772Y321122D01*
X233772Y325359D01*
X231653Y327477D01*
X229535Y327477D01*
X229535Y319004D01*
X225298Y332101D02*
X233772Y332101D01*
X229535Y332101D02*
X233772Y336338D01*
X233772Y338456D01*
X233772Y358231D02*
X233772Y362468D01*
X231653Y364586D01*
X225298Y364586D01*
X225298Y358231D01*
X227416Y356112D01*
X229535Y358231D01*
X229535Y364586D01*
X238009Y388662D02*
X235890Y390781D01*
X238009Y388662D02*
X238009Y384425D01*
X235890Y382307D01*
X227416Y382307D01*
X225298Y384425D01*
X225298Y388662D01*
X227416Y390781D01*
X225298Y395404D02*
X233772Y395404D01*
X229535Y395404D02*
X233772Y399641D01*
X233772Y401760D01*
X225298Y408437D02*
X225298Y412674D01*
X225298Y408437D02*
X227416Y406319D01*
X231653Y406319D01*
X233772Y408437D01*
X233772Y412674D01*
X231653Y414792D01*
X229535Y414792D01*
X229535Y406319D01*
X233772Y421534D02*
X233772Y425771D01*
X231653Y427890D01*
X225298Y427890D01*
X225298Y421534D01*
X227416Y419416D01*
X229535Y421534D01*
X229535Y427890D01*
X227416Y434632D02*
X235890Y434632D01*
X227416Y434632D02*
X225298Y436750D01*
X233772Y436750D02*
X233772Y432513D01*
X233772Y441245D02*
X233772Y443363D01*
X225298Y443363D01*
X225298Y441245D02*
X225298Y445482D01*
X238009Y443363D02*
X240127Y443363D01*
X233772Y449976D02*
X225298Y454213D01*
X233772Y458450D01*
X225298Y465192D02*
X225298Y469429D01*
X225298Y465192D02*
X227416Y463073D01*
X231653Y463073D01*
X233772Y465192D01*
X233772Y469429D01*
X231653Y471547D01*
X229535Y471547D01*
X229535Y463073D01*
X238009Y495623D02*
X235890Y497742D01*
X238009Y495623D02*
X238009Y491386D01*
X235890Y489268D01*
X227416Y489268D01*
X225298Y491386D01*
X225298Y495623D01*
X227416Y497742D01*
X225298Y504484D02*
X225298Y508720D01*
X227416Y510839D01*
X231653Y510839D01*
X233772Y508720D01*
X233772Y504484D01*
X231653Y502365D01*
X227416Y502365D01*
X225298Y504484D01*
X225298Y515462D02*
X233772Y515462D01*
X233772Y517581D01*
X231653Y519699D01*
X225298Y519699D01*
X231653Y519699D02*
X233772Y521818D01*
X231653Y523936D01*
X225298Y523936D01*
X225298Y528560D02*
X233772Y528560D01*
X233772Y530678D01*
X231653Y532797D01*
X225298Y532797D01*
X231653Y532797D02*
X233772Y534915D01*
X231653Y537033D01*
X225298Y537033D01*
X225298Y543775D02*
X225298Y548012D01*
X227416Y550131D01*
X231653Y550131D01*
X233772Y548012D01*
X233772Y543775D01*
X231653Y541657D01*
X227416Y541657D01*
X225298Y543775D01*
X225298Y554754D02*
X233772Y554754D01*
X233772Y561109D01*
X231653Y563228D01*
X225298Y563228D01*
X225298Y567851D02*
X225298Y574207D01*
X227416Y576325D01*
X229535Y574207D01*
X229535Y569970D01*
X231653Y567851D01*
X233772Y569970D01*
X233772Y576325D01*
X233772Y594046D02*
X225298Y594046D01*
X233772Y594046D02*
X238009Y598283D01*
X233772Y602520D01*
X225298Y602520D01*
X231653Y602520D02*
X231653Y594046D01*
X235890Y609262D02*
X227416Y609262D01*
X225298Y611380D01*
X233772Y611380D02*
X233772Y607143D01*
X235890Y617993D02*
X227416Y617993D01*
X225298Y620112D01*
X233772Y620112D02*
X233772Y615875D01*
X233772Y624606D02*
X225298Y624606D01*
X229535Y624606D02*
X233772Y628843D01*
X233772Y630961D01*
X233772Y635520D02*
X233772Y637639D01*
X225298Y637639D01*
X225298Y639757D02*
X225298Y635520D01*
X238009Y637639D02*
X240127Y637639D01*
X238009Y644252D02*
X225298Y644252D01*
X225298Y650607D01*
X227416Y652726D01*
X231653Y652726D01*
X233772Y650607D01*
X233772Y644252D01*
X233772Y657349D02*
X227416Y657349D01*
X225298Y659468D01*
X225298Y665823D01*
X233772Y665823D01*
X235890Y672565D02*
X227416Y672565D01*
X225298Y674683D01*
X233772Y674683D02*
X233772Y670446D01*
X233772Y679178D02*
X233772Y681296D01*
X225298Y681296D01*
X225298Y679178D02*
X225298Y683415D01*
X238009Y681296D02*
X240127Y681296D01*
X225298Y690028D02*
X225298Y694265D01*
X227416Y696383D01*
X231653Y696383D01*
X233772Y694265D01*
X233772Y690028D01*
X231653Y687909D01*
X227416Y687909D01*
X225298Y690028D01*
X225298Y701007D02*
X233772Y701007D01*
X233772Y707362D01*
X231653Y709481D01*
X225298Y709481D01*
X231653Y714104D02*
X231653Y722578D01*
X218110Y315135D02*
X220229Y313016D01*
X220229Y308779D01*
X218110Y306661D01*
X215992Y306661D01*
X213873Y308779D01*
X213873Y313016D01*
X211755Y315135D01*
X209636Y315135D01*
X207518Y313016D01*
X207518Y308779D01*
X209636Y306661D01*
X207518Y319758D02*
X220229Y319758D01*
X215992Y321876D02*
X213873Y319758D01*
X215992Y321876D02*
X215992Y326113D01*
X213873Y328232D01*
X207518Y328232D01*
X215992Y334974D02*
X215992Y339211D01*
X213873Y341329D01*
X207518Y341329D01*
X207518Y334974D01*
X209636Y332855D01*
X211755Y334974D01*
X211755Y341329D01*
X207518Y345953D02*
X215992Y345953D01*
X215992Y350189D02*
X211755Y345953D01*
X215992Y350189D02*
X215992Y352308D01*
X207518Y358985D02*
X207518Y363222D01*
X207518Y358985D02*
X209636Y356867D01*
X213873Y356867D01*
X215992Y358985D01*
X215992Y363222D01*
X213873Y365341D01*
X211755Y365341D01*
X211755Y356867D01*
X207518Y369964D02*
X215992Y369964D01*
X220229Y374201D01*
X215992Y378438D01*
X207518Y378438D01*
X213873Y378438D02*
X213873Y369964D01*
X220229Y383061D02*
X220229Y385180D01*
X207518Y385180D01*
X207518Y387298D02*
X207518Y383061D01*
X215992Y391793D02*
X215992Y393911D01*
X207518Y393911D01*
X207518Y391793D02*
X207518Y396030D01*
X220229Y393911D02*
X222347Y393911D01*
X220229Y400524D02*
X207518Y400524D01*
X211755Y400524D02*
X207518Y406880D01*
X211755Y400524D02*
X215992Y406880D01*
X207518Y413557D02*
X207518Y417794D01*
X207518Y413557D02*
X209636Y411439D01*
X213873Y411439D01*
X215992Y413557D01*
X215992Y417794D01*
X213873Y419913D01*
X211755Y419913D01*
X211755Y411439D01*
X207518Y443989D02*
X220229Y443989D01*
X213873Y437633D01*
X213873Y446107D01*
X209636Y450731D02*
X207518Y450731D01*
X209636Y450731D02*
X209636Y452849D01*
X207518Y452849D01*
X207518Y450731D01*
X209636Y457279D02*
X218110Y457279D01*
X220229Y459398D01*
X220229Y463635D01*
X218110Y465753D01*
X209636Y465753D01*
X207518Y463635D01*
X207518Y459398D01*
X209636Y457279D01*
X218110Y465753D01*
X207518Y483474D02*
X207518Y487711D01*
X207518Y485592D02*
X220229Y485592D01*
X220229Y483474D02*
X220229Y487711D01*
X215992Y492205D02*
X207518Y492205D01*
X215992Y492205D02*
X215992Y498561D01*
X213873Y500679D01*
X207518Y500679D01*
X209636Y507421D02*
X218110Y507421D01*
X209636Y507421D02*
X207518Y509539D01*
X215992Y509539D02*
X215992Y505302D01*
X207518Y516152D02*
X207518Y520389D01*
X207518Y516152D02*
X209636Y514034D01*
X213873Y514034D01*
X215992Y516152D01*
X215992Y520389D01*
X213873Y522508D01*
X211755Y522508D01*
X211755Y514034D01*
X207518Y527131D02*
X215992Y527131D01*
X211755Y527131D02*
X215992Y531368D01*
X215992Y533487D01*
X215992Y538046D02*
X207518Y538046D01*
X215992Y538046D02*
X215992Y544401D01*
X213873Y546519D01*
X207518Y546519D01*
X215992Y553261D02*
X215992Y557498D01*
X213873Y559617D01*
X207518Y559617D01*
X207518Y553261D01*
X209636Y551143D01*
X211755Y553261D01*
X211755Y559617D01*
X209636Y566358D02*
X218110Y566358D01*
X209636Y566358D02*
X207518Y568477D01*
X215992Y568477D02*
X215992Y564240D01*
X215992Y572972D02*
X215992Y575090D01*
X207518Y575090D01*
X207518Y572972D02*
X207518Y577208D01*
X220229Y575090D02*
X222347Y575090D01*
X207518Y583821D02*
X207518Y588058D01*
X209636Y590177D01*
X213873Y590177D01*
X215992Y588058D01*
X215992Y583821D01*
X213873Y581703D01*
X209636Y581703D01*
X207518Y583821D01*
X207518Y594800D02*
X215992Y594800D01*
X215992Y601156D01*
X213873Y603274D01*
X207518Y603274D01*
X215992Y610016D02*
X215992Y614253D01*
X213873Y616371D01*
X207518Y616371D01*
X207518Y610016D01*
X209636Y607898D01*
X211755Y610016D01*
X211755Y616371D01*
X220229Y620995D02*
X220229Y623113D01*
X207518Y623113D01*
X207518Y620995D02*
X207518Y625232D01*
X211755Y642824D02*
X207518Y647060D01*
X211755Y642824D02*
X215992Y642824D01*
X220229Y647060D01*
X220229Y657910D02*
X218110Y660029D01*
X220229Y657910D02*
X220229Y653673D01*
X218110Y651555D01*
X209636Y651555D01*
X207518Y653673D01*
X207518Y657910D01*
X209636Y660029D01*
X220229Y671008D02*
X218110Y673126D01*
X220229Y671008D02*
X220229Y666771D01*
X218110Y664652D01*
X209636Y664652D01*
X207518Y666771D01*
X207518Y671008D01*
X209636Y673126D01*
X207518Y690847D02*
X220229Y690847D01*
X220229Y697202D01*
X218110Y699321D01*
X215992Y699321D01*
X213873Y697202D01*
X211755Y699321D01*
X209636Y699321D01*
X207518Y697202D01*
X207518Y690847D01*
X213873Y690847D02*
X213873Y697202D01*
X218110Y703944D02*
X220229Y703944D01*
X218110Y703944D02*
X213873Y708181D01*
X218110Y712418D01*
X220229Y712418D01*
X213873Y708181D02*
X207518Y708181D01*
X195077Y314036D02*
X195077Y305562D01*
X201433Y325015D02*
X199314Y327133D01*
X201433Y325015D02*
X201433Y320778D01*
X199314Y318659D01*
X197196Y318659D01*
X195077Y320778D01*
X195077Y325015D01*
X192959Y327133D01*
X190840Y327133D01*
X188722Y325015D01*
X188722Y320778D01*
X190840Y318659D01*
X188722Y331757D02*
X197196Y331757D01*
X201433Y335993D01*
X197196Y340230D01*
X188722Y340230D01*
X195077Y340230D02*
X195077Y331757D01*
X188722Y364306D02*
X201433Y364306D01*
X195077Y357951D01*
X195077Y366425D01*
X190840Y371048D02*
X188722Y371048D01*
X190840Y371048D02*
X190840Y373167D01*
X188722Y373167D01*
X188722Y371048D01*
X190840Y377597D02*
X199314Y377597D01*
X201433Y379715D01*
X201433Y383952D01*
X199314Y386071D01*
X190840Y386071D01*
X188722Y383952D01*
X188722Y379715D01*
X190840Y377597D01*
X199314Y386071D01*
X192959Y394931D02*
X188722Y390694D01*
X192959Y394931D02*
X197196Y394931D01*
X201433Y390694D01*
X201433Y412523D02*
X188722Y412523D01*
X188722Y420997D01*
X197196Y425620D02*
X197196Y427739D01*
X188722Y427739D01*
X188722Y429857D02*
X188722Y425620D01*
X201433Y427739D02*
X203551Y427739D01*
X197196Y436470D02*
X197196Y442826D01*
X197196Y436470D02*
X195077Y434352D01*
X190840Y434352D01*
X188722Y436470D01*
X188722Y442826D01*
X188722Y449567D02*
X188722Y453804D01*
X188722Y449567D02*
X190840Y447449D01*
X195077Y447449D01*
X197196Y449567D01*
X197196Y453804D01*
X195077Y455923D01*
X192959Y455923D01*
X192959Y447449D01*
X188722Y460546D02*
X197196Y460546D01*
X197196Y466902D01*
X195077Y469020D01*
X188722Y469020D01*
X188722Y473643D02*
X188722Y479999D01*
X190840Y482117D01*
X192959Y479999D01*
X192959Y475762D01*
X195077Y473643D01*
X197196Y475762D01*
X197196Y482117D01*
X188722Y488859D02*
X188722Y493096D01*
X188722Y488859D02*
X190840Y486741D01*
X195077Y486741D01*
X197196Y488859D01*
X197196Y493096D01*
X195077Y495215D01*
X192959Y495215D01*
X192959Y486741D01*
X190840Y499838D02*
X188722Y499838D01*
X190840Y499838D02*
X190840Y501956D01*
X188722Y501956D01*
X188722Y499838D01*
X188722Y519484D02*
X201433Y519484D01*
X201433Y525839D01*
X199314Y527958D01*
X197196Y527958D01*
X195077Y525839D01*
X192959Y527958D01*
X190840Y527958D01*
X188722Y525839D01*
X188722Y519484D01*
X195077Y519484D02*
X195077Y525839D01*
X197196Y534699D02*
X197196Y538936D01*
X195077Y541055D01*
X188722Y541055D01*
X188722Y534699D01*
X190840Y532581D01*
X192959Y534699D01*
X192959Y541055D01*
X188722Y545678D02*
X188722Y552034D01*
X190840Y554152D01*
X192959Y552034D01*
X192959Y547797D01*
X195077Y545678D01*
X197196Y547797D01*
X197196Y554152D01*
X188722Y560894D02*
X188722Y565131D01*
X188722Y560894D02*
X190840Y558776D01*
X195077Y558776D01*
X197196Y560894D01*
X197196Y565131D01*
X195077Y567249D01*
X192959Y567249D01*
X192959Y558776D01*
X188722Y580347D02*
X201433Y580347D01*
X188722Y580347D02*
X188722Y573991D01*
X190840Y571873D01*
X195077Y571873D01*
X197196Y573991D01*
X197196Y580347D01*
X188722Y600186D02*
X188722Y604423D01*
X190840Y606541D01*
X195077Y606541D01*
X197196Y604423D01*
X197196Y600186D01*
X195077Y598067D01*
X190840Y598067D01*
X188722Y600186D01*
X188722Y611165D02*
X197196Y611165D01*
X197196Y617520D01*
X195077Y619638D01*
X188722Y619638D01*
X190840Y639477D02*
X199314Y639477D01*
X190840Y639477D02*
X188722Y641596D01*
X197196Y641596D02*
X197196Y637359D01*
X201433Y646091D02*
X188722Y646091D01*
X195077Y646091D02*
X197196Y648209D01*
X197196Y652446D01*
X195077Y654564D01*
X188722Y654564D01*
X188722Y661306D02*
X188722Y665543D01*
X188722Y661306D02*
X190840Y659188D01*
X195077Y659188D01*
X197196Y661306D01*
X197196Y665543D01*
X195077Y667662D01*
X192959Y667662D01*
X192959Y659188D01*
X169418Y313297D02*
X169418Y309060D01*
X169418Y313297D02*
X171536Y315416D01*
X175773Y315416D01*
X177892Y313297D01*
X177892Y309060D01*
X175773Y306942D01*
X171536Y306942D01*
X169418Y309060D01*
X169418Y320039D02*
X177892Y320039D01*
X173655Y320039D02*
X177892Y324276D01*
X177892Y326395D01*
X177892Y330953D02*
X177892Y333072D01*
X169418Y333072D01*
X169418Y335190D02*
X169418Y330953D01*
X182129Y333072D02*
X184247Y333072D01*
X165181Y343922D02*
X165181Y346040D01*
X167300Y348159D01*
X177892Y348159D01*
X177892Y341803D01*
X175773Y339685D01*
X171536Y339685D01*
X169418Y341803D01*
X169418Y348159D01*
X177892Y352782D02*
X177892Y354901D01*
X169418Y354901D01*
X169418Y357019D02*
X169418Y352782D01*
X182129Y354901D02*
X184247Y354901D01*
X177892Y361514D02*
X169418Y361514D01*
X177892Y361514D02*
X177892Y367869D01*
X175773Y369988D01*
X169418Y369988D01*
X177892Y376729D02*
X177892Y380966D01*
X175773Y383085D01*
X169418Y383085D01*
X169418Y376729D01*
X171536Y374611D01*
X173655Y376729D01*
X173655Y383085D01*
X182129Y387708D02*
X182129Y389827D01*
X169418Y389827D01*
X169418Y391945D02*
X169418Y387708D01*
X169418Y409537D02*
X182129Y409537D01*
X169418Y409537D02*
X169418Y415892D01*
X171536Y418011D01*
X175773Y418011D01*
X177892Y415892D01*
X177892Y409537D01*
X177892Y422634D02*
X171536Y422634D01*
X169418Y424753D01*
X169418Y431108D01*
X167300Y431108D02*
X177892Y431108D01*
X167300Y431108D02*
X165181Y428990D01*
X165181Y426871D01*
X177892Y435731D02*
X177892Y437850D01*
X175773Y437850D01*
X175773Y435731D01*
X177892Y435731D01*
X171536Y435731D02*
X171536Y437850D01*
X169418Y437850D01*
X169418Y435731D01*
X171536Y435731D01*
X180010Y457496D02*
X184247Y457496D01*
X180010Y457496D02*
X177892Y455377D01*
X180010Y461733D02*
X184247Y461733D01*
X180010Y461733D02*
X177892Y459614D01*
X182129Y466292D02*
X169418Y466292D01*
X169418Y474766D01*
X177892Y479389D02*
X177892Y481507D01*
X169418Y481507D01*
X169418Y479389D02*
X169418Y483626D01*
X182129Y481507D02*
X184247Y481507D01*
X180010Y490239D02*
X171536Y490239D01*
X169418Y492357D01*
X177892Y492357D02*
X177892Y488120D01*
X180010Y498970D02*
X171536Y498970D01*
X169418Y501089D01*
X177892Y501089D02*
X177892Y496852D01*
X182129Y505583D02*
X182129Y507702D01*
X169418Y507702D01*
X169418Y509820D02*
X169418Y505583D01*
X169418Y516433D02*
X169418Y520670D01*
X169418Y516433D02*
X171536Y514315D01*
X175773Y514315D01*
X177892Y516433D01*
X177892Y520670D01*
X175773Y522789D01*
X173655Y522789D01*
X173655Y514315D01*
X171536Y540509D02*
X169418Y542628D01*
X169418Y544746D01*
X171536Y546865D01*
X182129Y546865D01*
X182129Y548983D02*
X182129Y544746D01*
X169418Y555725D02*
X169418Y559962D01*
X171536Y562081D01*
X175773Y562081D01*
X177892Y559962D01*
X177892Y555725D01*
X175773Y553607D01*
X171536Y553607D01*
X169418Y555725D01*
X169418Y566704D02*
X182129Y566704D01*
X177892Y568822D02*
X175773Y566704D01*
X177892Y568822D02*
X177892Y573059D01*
X175773Y575178D01*
X169418Y575178D01*
X169418Y579801D02*
X177892Y579801D01*
X177892Y586157D01*
X175773Y588275D01*
X169418Y588275D01*
X180010Y595017D02*
X184247Y595017D01*
X180010Y595017D02*
X177892Y592898D01*
X180010Y599254D02*
X184247Y599254D01*
X180010Y599254D02*
X177892Y597135D01*
X171536Y603813D02*
X169418Y603813D01*
X171536Y603813D02*
X171536Y605931D01*
X169418Y605931D01*
X169418Y603813D01*
X138949Y228783D02*
X126238Y228783D01*
X138949Y224546D02*
X138949Y233020D01*
X138949Y237643D02*
X126238Y237643D01*
X132593Y237643D02*
X134712Y239762D01*
X134712Y243999D01*
X132593Y246117D01*
X126238Y246117D01*
X126238Y252859D02*
X126238Y257096D01*
X126238Y252859D02*
X128356Y250741D01*
X132593Y250741D01*
X134712Y252859D01*
X134712Y257096D01*
X132593Y259214D01*
X130475Y259214D01*
X130475Y250741D01*
X126238Y263838D02*
X138949Y263838D01*
X126238Y263838D02*
X126238Y272312D01*
X134712Y276935D02*
X134712Y279054D01*
X126238Y279054D01*
X126238Y281172D02*
X126238Y276935D01*
X138949Y279054D02*
X141067Y279054D01*
X136830Y287785D02*
X128356Y287785D01*
X126238Y289904D01*
X134712Y289904D02*
X134712Y285667D01*
X136830Y296517D02*
X128356Y296517D01*
X126238Y298635D01*
X134712Y298635D02*
X134712Y294398D01*
X138949Y303130D02*
X138949Y305248D01*
X126238Y305248D01*
X126238Y303130D02*
X126238Y307367D01*
X126238Y313980D02*
X126238Y318216D01*
X126238Y313980D02*
X128356Y311861D01*
X132593Y311861D01*
X134712Y313980D01*
X134712Y318216D01*
X132593Y320335D01*
X130475Y320335D01*
X130475Y311861D01*
X138949Y324958D02*
X138949Y333432D01*
X138949Y324958D02*
X126238Y324958D01*
X126238Y333432D01*
X132593Y329195D02*
X132593Y324958D01*
X134712Y338056D02*
X126238Y338056D01*
X134712Y338056D02*
X134712Y344411D01*
X132593Y346529D01*
X126238Y346529D01*
X122001Y355390D02*
X122001Y357508D01*
X124120Y359627D01*
X134712Y359627D01*
X134712Y353271D01*
X132593Y351153D01*
X128356Y351153D01*
X126238Y353271D01*
X126238Y359627D01*
X134712Y364250D02*
X134712Y366369D01*
X126238Y366369D01*
X126238Y368487D02*
X126238Y364250D01*
X138949Y366369D02*
X141067Y366369D01*
X134712Y372982D02*
X126238Y372982D01*
X134712Y372982D02*
X134712Y379337D01*
X132593Y381455D01*
X126238Y381455D01*
X126238Y388197D02*
X126238Y392434D01*
X126238Y388197D02*
X128356Y386079D01*
X132593Y386079D01*
X134712Y388197D01*
X134712Y392434D01*
X132593Y394553D01*
X130475Y394553D01*
X130475Y386079D01*
X126238Y401295D02*
X126238Y405531D01*
X126238Y401295D02*
X128356Y399176D01*
X132593Y399176D01*
X134712Y401295D01*
X134712Y405531D01*
X132593Y407650D01*
X130475Y407650D01*
X130475Y399176D01*
X126238Y412273D02*
X134712Y412273D01*
X130475Y412273D02*
X134712Y416510D01*
X134712Y418629D01*
X126238Y423188D02*
X126238Y429543D01*
X128356Y431662D01*
X130475Y429543D01*
X130475Y425306D01*
X132593Y423188D01*
X134712Y425306D01*
X134712Y431662D01*
X128356Y436285D02*
X126238Y436285D01*
X128356Y436285D02*
X128356Y438403D01*
X126238Y438403D01*
X126238Y436285D01*
X126238Y444952D02*
X126238Y449189D01*
X128356Y451307D01*
X132593Y451307D01*
X134712Y449189D01*
X134712Y444952D01*
X132593Y442834D01*
X128356Y442834D01*
X126238Y444952D01*
X126238Y455931D02*
X134712Y455931D01*
X130475Y455931D02*
X134712Y460168D01*
X134712Y462286D01*
X122001Y471082D02*
X122001Y473201D01*
X124120Y475319D01*
X134712Y475319D01*
X134712Y468964D01*
X132593Y466845D01*
X128356Y466845D01*
X126238Y468964D01*
X126238Y475319D01*
X132593Y479942D02*
X132593Y488416D01*
X138949Y499395D02*
X136830Y501514D01*
X138949Y499395D02*
X138949Y495158D01*
X136830Y493040D01*
X128356Y493040D01*
X126238Y495158D01*
X126238Y499395D01*
X128356Y501514D01*
X138949Y512492D02*
X136830Y514611D01*
X138949Y512492D02*
X138949Y508255D01*
X136830Y506137D01*
X128356Y506137D01*
X126238Y508255D01*
X126238Y512492D01*
X128356Y514611D01*
X126238Y519234D02*
X126238Y527708D01*
X126238Y519234D02*
X134712Y527708D01*
X136830Y527708D01*
X138949Y525590D01*
X138949Y521353D01*
X136830Y519234D01*
X132593Y532331D02*
X132593Y540805D01*
X136830Y545429D02*
X138949Y547547D01*
X138949Y551784D01*
X136830Y553903D01*
X134712Y553903D01*
X132593Y551784D01*
X132593Y549666D01*
X132593Y551784D02*
X130475Y553903D01*
X128356Y553903D01*
X126238Y551784D01*
X126238Y547547D01*
X128356Y545429D01*
X126238Y558526D02*
X126238Y567000D01*
X126238Y558526D02*
X134712Y567000D01*
X136830Y567000D01*
X138949Y564881D01*
X138949Y560644D01*
X136830Y558526D01*
X138949Y571623D02*
X126238Y571623D01*
X130475Y571623D02*
X138949Y580097D01*
X132593Y573742D02*
X126238Y580097D01*
X132593Y584720D02*
X132593Y593194D01*
X138949Y597818D02*
X138949Y606292D01*
X138949Y597818D02*
X126238Y597818D01*
X126238Y606292D01*
X132593Y602055D02*
X132593Y597818D01*
X126238Y610915D02*
X138949Y610915D01*
X138949Y617270D01*
X136830Y619389D01*
X132593Y619389D01*
X130475Y617270D01*
X130475Y610915D01*
X126238Y624012D02*
X138949Y624012D01*
X138949Y630368D01*
X136830Y632486D01*
X132593Y632486D01*
X130475Y630368D01*
X130475Y624012D01*
X130475Y628249D02*
X126238Y632486D01*
X138949Y639228D02*
X138949Y643465D01*
X138949Y639228D02*
X136830Y637109D01*
X128356Y637109D01*
X126238Y639228D01*
X126238Y643465D01*
X128356Y645583D01*
X136830Y645583D01*
X138949Y643465D01*
X138949Y650207D02*
X126238Y650207D01*
X134712Y654444D02*
X138949Y650207D01*
X134712Y654444D02*
X138949Y658681D01*
X126238Y658681D01*
X132593Y663304D02*
X132593Y671778D01*
X119050Y492783D02*
X121169Y490664D01*
X121169Y486427D01*
X119050Y484309D01*
X110576Y484309D01*
X108458Y486427D01*
X108458Y490664D01*
X110576Y492783D01*
X108458Y497406D02*
X116932Y497406D01*
X121169Y501643D01*
X116932Y505880D01*
X108458Y505880D01*
X114813Y505880D02*
X114813Y497406D01*
X108458Y510503D02*
X121169Y510503D01*
X121169Y516859D01*
X119050Y518977D01*
X114813Y518977D01*
X112695Y516859D01*
X112695Y510503D01*
X112695Y514740D02*
X108458Y518977D01*
X108458Y527837D02*
X121169Y527837D01*
X121169Y523600D02*
X121169Y532074D01*
X121169Y536698D02*
X108458Y536698D01*
X121169Y536698D02*
X121169Y543053D01*
X119050Y545172D01*
X114813Y545172D01*
X112695Y543053D01*
X112695Y536698D01*
X112695Y540935D02*
X108458Y545172D01*
X108458Y549795D02*
X108458Y554032D01*
X108458Y551913D02*
X121169Y551913D01*
X121169Y549795D02*
X121169Y554032D01*
X121169Y558526D02*
X108458Y558526D01*
X108458Y564882D01*
X110576Y567000D01*
X119050Y567000D01*
X121169Y564882D01*
X121169Y558526D01*
X121169Y577979D02*
X119050Y580098D01*
X121169Y577979D02*
X121169Y573742D01*
X119050Y571624D01*
X110576Y571624D01*
X108458Y573742D01*
X108458Y577979D01*
X110576Y580098D01*
X114813Y580098D01*
X114813Y575861D01*
X121169Y584721D02*
X121169Y593195D01*
X121169Y584721D02*
X108458Y584721D01*
X108458Y593195D01*
X114813Y588958D02*
X114813Y584721D01*
X114813Y597818D02*
X114813Y606292D01*
X108458Y610915D02*
X108458Y619389D01*
X108458Y610915D02*
X116932Y619389D01*
X119050Y619389D01*
X121169Y617271D01*
X121169Y613034D01*
X119050Y610915D01*
X119050Y624013D02*
X110576Y624013D01*
X119050Y624013D02*
X121169Y626131D01*
X121169Y630368D01*
X119050Y632487D01*
X110576Y632487D01*
X108458Y630368D01*
X108458Y626131D01*
X110576Y624013D01*
X119050Y632487D01*
X116932Y637110D02*
X121169Y641347D01*
X108458Y641347D01*
X108458Y637110D02*
X108458Y645584D01*
X108458Y650207D02*
X108458Y658681D01*
X108458Y650207D02*
X116932Y658681D01*
X119050Y658681D01*
X121169Y656563D01*
X121169Y652326D01*
X119050Y650207D01*
X114813Y663304D02*
X114813Y671778D01*
X103389Y485420D02*
X94915Y485420D01*
X90678Y489657D01*
X94915Y493894D01*
X103389Y493894D01*
X99152Y498517D02*
X103389Y502754D01*
X90678Y502754D01*
X90678Y498517D02*
X90678Y506991D01*
X90678Y511615D02*
X103389Y511615D01*
X103389Y517970D01*
X101270Y520089D01*
X97033Y520089D01*
X94915Y517970D01*
X94915Y511615D01*
X94915Y515852D02*
X90678Y520089D01*
X92796Y524712D02*
X101270Y524712D01*
X103389Y526830D01*
X103389Y531067D01*
X101270Y533186D01*
X92796Y533186D01*
X90678Y531067D01*
X90678Y526830D01*
X92796Y524712D01*
X101270Y533186D01*
X97033Y537809D02*
X97033Y546283D01*
X92796Y550906D02*
X101270Y550906D01*
X103389Y553025D01*
X103389Y557262D01*
X101270Y559380D01*
X92796Y559380D01*
X90678Y557262D01*
X90678Y553025D01*
X92796Y550906D01*
X101270Y559380D01*
X103389Y564004D02*
X103389Y572478D01*
X103389Y564004D02*
X97033Y564004D01*
X99152Y568241D01*
X99152Y570359D01*
X97033Y572478D01*
X92796Y572478D01*
X90678Y570359D01*
X90678Y566122D01*
X92796Y564004D01*
X92796Y577101D02*
X90678Y577101D01*
X92796Y577101D02*
X92796Y579219D01*
X90678Y579219D01*
X90678Y577101D01*
X92796Y583650D02*
X101270Y583650D01*
X103389Y585768D01*
X103389Y590005D01*
X101270Y592123D01*
X92796Y592123D01*
X90678Y590005D01*
X90678Y585768D01*
X92796Y583650D01*
X101270Y592123D01*
X103389Y603102D02*
X90678Y603102D01*
X97033Y596747D02*
X103389Y603102D01*
X97033Y605221D02*
X97033Y596747D01*
X92796Y609844D02*
X90678Y609844D01*
X92796Y609844D02*
X92796Y611963D01*
X90678Y611963D01*
X90678Y609844D01*
X90678Y616393D02*
X90678Y624867D01*
X90678Y616393D02*
X99152Y624867D01*
X101270Y624867D01*
X103389Y622748D01*
X103389Y618511D01*
X101270Y616393D01*
X101270Y629490D02*
X92796Y629490D01*
X101270Y629490D02*
X103389Y631608D01*
X103389Y635845D01*
X101270Y637964D01*
X92796Y637964D01*
X90678Y635845D01*
X90678Y631608D01*
X92796Y629490D01*
X101270Y637964D01*
X99152Y642587D02*
X103389Y646824D01*
X90678Y646824D01*
X90678Y642587D02*
X90678Y651061D01*
X92796Y655684D02*
X90678Y657803D01*
X90678Y662040D01*
X92796Y664158D01*
X101270Y664158D01*
X103389Y662040D01*
X103389Y657803D01*
X101270Y655684D01*
X99152Y655684D01*
X97033Y657803D01*
X97033Y664158D01*
M02*
