G04 EAGLE Gerber RS-274X export*
G75*
%MOMM*%
%FSLAX34Y34*%
%LPD*%
%INSoldermask Bottom*%
%IPPOS*%
%AMOC8*
5,1,8,0,0,1.08239X$1,22.5*%
G01*
%ADD10P,4.343848X8X22.500000*%
%ADD11C,1.524000*%
%ADD12P,1.649562X8X202.500000*%
%ADD13P,1.649562X8X112.500000*%
%ADD14R,1.524000X1.524000*%
%ADD15P,1.649562X8X292.500000*%
%ADD16R,4.140200X1.727200*%
%ADD17P,1.649562X8X22.500000*%
%ADD18C,1.219200*%


D10*
X449580Y723900D03*
X449580Y241300D03*
X290830Y723900D03*
X74930Y723900D03*
X290830Y241300D03*
X74930Y241300D03*
D11*
X299720Y332740D03*
D12*
X299720Y358140D03*
X299720Y383540D03*
X299720Y408940D03*
X299720Y434340D03*
X299720Y459740D03*
X299720Y485140D03*
X299720Y510540D03*
X299720Y535940D03*
X299720Y561340D03*
X299720Y586740D03*
X299720Y612140D03*
X299720Y637540D03*
X299720Y662940D03*
X147320Y662940D03*
X147320Y637540D03*
X147320Y612140D03*
X147320Y586740D03*
X147320Y561340D03*
X147320Y535940D03*
X147320Y510540D03*
X147320Y485140D03*
X147320Y459740D03*
X147320Y434340D03*
X147320Y408940D03*
X147320Y383540D03*
X147320Y358140D03*
X147320Y332740D03*
D13*
X243840Y726440D03*
D14*
X218440Y726440D03*
D15*
X223520Y254000D03*
D14*
X248920Y254000D03*
D15*
X198120Y254000D03*
D16*
X25400Y241300D03*
X25400Y266700D03*
X25400Y292100D03*
X25400Y317500D03*
X25400Y342900D03*
X25400Y368300D03*
X25400Y393700D03*
X25400Y419100D03*
X25400Y444500D03*
X25400Y469900D03*
X25400Y495300D03*
X25400Y520700D03*
X25400Y546100D03*
X25400Y571500D03*
X25400Y596900D03*
X25400Y622300D03*
X25400Y647700D03*
X25400Y673100D03*
X25400Y698500D03*
X25400Y723900D03*
D17*
X147320Y294640D03*
X198120Y294640D03*
D18*
X55269Y317500D03*
X58063Y501627D03*
X58135Y478096D03*
X115779Y407017D03*
X89565Y399547D03*
X110270Y426393D03*
X58802Y286814D03*
X78282Y600084D03*
X98466Y415201D03*
M02*
